<svg xmlns="http://www.w3.org/2000/svg" width="640" height="360" viewBox="0 0 640 360" fill="none" role="img" aria-hidden="true">
  <rect width="640" height="360" rx="24" fill="#1E1E22"/>
  <rect x="24" y="24" width="280" height="312" rx="16" fill="#25252B" stroke="#3A3A42" stroke-width="1"/>
  <rect x="44" y="44" width="140" height="14" rx="7" fill="#4EDEA3" opacity="0.9"/>
  <rect x="44" y="76" width="240" height="36" rx="10" fill="#1E1E22" stroke="#3A3A42"/>
  <rect x="56" y="88" width="120" height="12" rx="6" fill="#3A3A42"/>
  <rect x="44" y="128" width="100" height="12" rx="6" fill="#3A3A42"/>
  <rect x="44" y="152" width="240" height="36" rx="10" fill="#1E1E22" stroke="#3A3A42"/>
  <rect x="44" y="204" width="240" height="44" rx="12" fill="#4EDEA3" opacity="0.2" stroke="#4EDEA3" stroke-width="1.5"/>
  <rect x="60" y="218" width="160" height="12" rx="6" fill="#4EDEA3" opacity="0.85"/>
  <rect x="328" y="24" width="288" height="312" rx="16" fill="#25252B" stroke="#3A3A42" stroke-width="1"/>
  <rect x="348" y="44" width="80" height="12" rx="6" fill="#3A3A42"/>
  <rect x="348" y="68" width="120" height="12" rx="6" fill="#4EDEA3" opacity="0.5"/>
  <rect x="348" y="100" width="248" height="28" rx="8" fill="#3A3A42" opacity="0.55"/>
  <rect x="348" y="136" width="248" height="28" rx="8" fill="#E07A5F" opacity="0.35"/>
  <rect x="348" y="172" width="248" height="28" rx="8" fill="#3A3A42" opacity="0.4"/>
  <rect x="348" y="208" width="248" height="28" rx="8" fill="#4EDEA3" opacity="0.45"/>
  <rect x="348" y="244" width="248" height="28" rx="8" fill="#E07A5F" opacity="0.35"/>
  <rect x="348" y="280" width="248" height="28" rx="8" fill="#3A3A42" opacity="0.4"/>
  <circle cx="368" cy="114" r="6" fill="#4EDEA3"/>
  <circle cx="368" cy="150" r="6" fill="#E07A5F"/>
  <circle cx="368" cy="222" r="6" fill="#4EDEA3"/>
  <circle cx="368" cy="258" r="6" fill="#E07A5F"/>
</svg>
